<?xml version="1.0" encoding="UTF-8" standalone="no"?>
<!-- Created with Inkscape (http://www.inkscape.org/) -->

<svg
   width="210mm"
   height="297mm"
   viewBox="0 0 210 297"
   version="1.1"
   id="svg1"
   xml:space="preserve"
   inkscape:version="1.4 (e7c3feb1, 2024-10-09)"
   sodipodi:docname="BEST Icon.svg"
   xmlns:inkscape="http://www.inkscape.org/namespaces/inkscape"
   xmlns:sodipodi="http://sodipodi.sourceforge.net/DTD/sodipodi-0.dtd"
   xmlns:xlink="http://www.w3.org/1999/xlink"
   xmlns="http://www.w3.org/2000/svg"
   xmlns:svg="http://www.w3.org/2000/svg"><sodipodi:namedview
     id="namedview1"
     pagecolor="#ffffff"
     bordercolor="#666666"
     borderopacity="1.0"
     inkscape:showpageshadow="2"
     inkscape:pageopacity="0.0"
     inkscape:pagecheckerboard="0"
     inkscape:deskcolor="#d1d1d1"
     inkscape:document-units="mm"
     inkscape:zoom="0.91846942"
     inkscape:cx="372.903"
     inkscape:cy="412.64303"
     inkscape:current-layer="layer1" /><defs
     id="defs1"><linearGradient
       id="linearGradient1"
       inkscape:collect="always"><stop
         style="stop-color:#388e3c;stop-opacity:1;"
         offset="0"
         id="stop1" /><stop
         style="stop-color:#1f5e26;stop-opacity:1;"
         offset="1"
         id="stop2" /></linearGradient><linearGradient
       inkscape:collect="always"
       xlink:href="#linearGradient1"
       id="linearGradient2"
       x1="118.82171"
       y1="305.89545"
       x2="274.10544"
       y2="284.07172"
       gradientUnits="userSpaceOnUse"
       gradientTransform="translate(-96.791465,-183.11848)" /></defs><g
     inkscape:label="Layer 1"
     inkscape:groupmode="layer"
     id="layer1"><g
       id="g4"
       transform="translate(-21.267163,-35.588373)"><rect
         style="fill:url(#linearGradient2);stroke:#000000;stroke-width:0.1;stroke-linecap:round;stroke-miterlimit:2"
         id="rect1"
         width="156.70999"
         height="152.10088"
         x="21.317163"
         y="35.814606"
         ry="11.522794" /><path
         style="fill:#f2f2f2;stroke:#f9f9f9;stroke-width:0.264583px;stroke-linecap:butt;stroke-linejoin:miter;stroke-opacity:1"
         d="M 107.30601,35.720664 H 93.190587 l -71.72939,69.712896 v 4.60911 l 61.64695,60.78274 v 7.77789 l -61.35888,-58.76625 v 10.08244 l 57.61397,57.61397 h 10.94665 V 95.927254 l -27.07857,26.214356 4.60912,4.03298 13.82736,-12.09894 v 38.88943 l -45.80311,-44.65082 63.37537,-63.375366 63.663433,62.511156 -44.65082,44.65082 v -38.88943 l 12.67507,13.53929 4.60912,-4.03298 -25.92629,-26.790496 v 91.030066 h 10.94666 l 56.74975,-56.46169 v -10.65858 l -60.49466,59.34239 v -7.77789 l 61.0708,-61.64694 v -4.60912 z"
         id="path2" /><path
         style="fill:#f9f9f9;stroke:#000000;stroke-width:0.264583px;stroke-linecap:butt;stroke-linejoin:miter;stroke-opacity:1"
         d="m 49.357675,110.8549 7.94414,8.35154 42.368805,-42.572496 41.9614,42.165096 8.35155,-8.35154 -50.51665,-49.701846 z"
         id="path3" /><path
         style="fill:#1a1a1a;fill-opacity:1;stroke:#000000;stroke-width:0.264583px;stroke-linecap:butt;stroke-linejoin:miter;stroke-opacity:1"
         d="M 104.05164,187.5874 V 93.6835 h 2.03696 l -6.518288,-6.51828 -6.31459,6.31458 h 2.03697 v 94.3113 c 8.570348,-0.16124 8.758948,-0.2037 8.758948,-0.2037 z"
         id="path4"
         sodipodi:nodetypes="cccccccc" /></g></g></svg>
